# xmcd CD database file
#
# Track frame offsets:
#	150
#	24094
#	40815
#	69810
#	84812
#	107691
#	124769
#	145563
#	164044
#	186418
#	205119
#	239687
#	268144
#
# Disc length: 3780 seconds
#
# Revision: 1
# Processed by: cddbd v1.5.1PL0 Copyright (c) Steve Scherf et al.
# Submitted via: jetAudio 5
#
DISCID=ac0ec20d
DTITLE=Buddy Guy - Bring 'Em In
DYEAR=1900
DGENRE=
TTITLE0=What Kind of Woman Is This
TTITLE1=Price You Gotta Pay
TTITLE2=Somebody's Sleeping in My Bed
TTITLE3=On a Saturday Night
TTITLE4=Now You're Gone
TTITLE5=Niney Nine and One Half
TTITLE6=Lay Lady Lay
TTITLE7=I Put a Spell on You
TTITLE8=I've Got Dreams to Remember
TTITLE9=Do Your Thing
TTITLE10=Cut You Loose
TTITLE11=Cheaper to Keep Her - Blues in the Night
TTITLE12=Ain't No Sunshine
EXTD=
EXTT0=
EXTT1=
EXTT2=
EXTT3=
EXTT4=
EXTT5=
EXTT6=
EXTT7=
EXTT8=
EXTT9=
EXTT10=
EXTT11=
EXTT12=
PLAYORDER=
